<?xml version="1.0" encoding="UTF-8" standalone="no"?>
<!-- Created with Inkscape (http://www.inkscape.org/) -->

<svg
   width="512"
   height="512"
   viewBox="0 0 135.46664 135.46663"
   version="1.1"
   id="svg1"
   xml:space="preserve"
   sodipodi:docname="icon.svg"
   inkscape:version="1.4.1 (93de688d07, 2025-03-30)"
   inkscape:export-filename="icon.png"
   inkscape:export-xdpi="96"
   inkscape:export-ydpi="96"
   xmlns:inkscape="http://www.inkscape.org/namespaces/inkscape"
   xmlns:sodipodi="http://sodipodi.sourceforge.net/DTD/sodipodi-0.dtd"
   xmlns="http://www.w3.org/2000/svg"
   xmlns:svg="http://www.w3.org/2000/svg"><sodipodi:namedview
     id="namedview1"
     pagecolor="#505050"
     bordercolor="#eeeeee"
     borderopacity="1"
     inkscape:showpageshadow="0"
     inkscape:pageopacity="0"
     inkscape:pagecheckerboard="0"
     inkscape:deskcolor="#505050"
     inkscape:document-units="px"
     showguides="true"
     inkscape:lockguides="false"
     inkscape:zoom="1.2142387"
     inkscape:cx="179.53636"
     inkscape:cy="187.77197"
     inkscape:window-width="1908"
     inkscape:window-height="1008"
     inkscape:window-x="4"
     inkscape:window-y="34"
     inkscape:window-maximized="1"
     inkscape:current-layer="layer1"><sodipodi:guide
       position="-251.53494,-245.76742"
       orientation="1,0"
       id="guide1"
       inkscape:locked="false" /></sodipodi:namedview><defs
     id="defs1"><linearGradient
       id="swatch32"
       inkscape:swatch="solid"><stop
         style="stop-color:#254a26;stop-opacity:1;"
         offset="0"
         id="stop32" /></linearGradient><clipPath
       clipPathUnits="userSpaceOnUse"
       id="clipPath33"><rect
         style="fill:#000000;stroke:none;stroke-width:0.999995;stroke-linecap:butt;stroke-linejoin:bevel;paint-order:stroke markers fill;stop-color:#000000"
         id="rect33"
         width="46.19186"
         height="80.006783"
         x="74.999985"
         y="399.99661" /></clipPath><clipPath
       clipPathUnits="userSpaceOnUse"
       id="clipPath5"><path
         id="path5"
         style="stroke-width:0.1;stroke-linecap:square;paint-order:markers fill stroke;stop-color:#000000"
         d="M 438.25066,553.76374 H 1298.1212 V 755.15928 H 438.25066 Z"
         sodipodi:nodetypes="ccccc" /></clipPath><clipPath
       clipPathUnits="userSpaceOnUse"
       id="clipPath25"><rect
         style="fill:#ff0000;stroke:none;stroke-width:3;stroke-linecap:square;stroke-linejoin:miter;paint-order:stroke markers fill;stop-color:#000000"
         id="rect25-8"
         width="78"
         height="45.033199"
         x="763.61322"
         y="452.82422" /></clipPath><clipPath
       clipPathUnits="userSpaceOnUse"
       id="clipPath54"><path
         id="path54"
         style="stroke-width:0.0999999;stroke-linecap:square;paint-order:markers fill stroke;stop-color:#000000"
         d="m 1691.1994,-792.32001 h 1634.8919 v 92.82806 H 1691.1994 Z" /></clipPath><linearGradient
       id="swatch6"
       inkscape:swatch="solid"><stop
         style="stop-color:#000000;stop-opacity:1;"
         offset="0"
         id="stop6" /></linearGradient></defs><g
     inkscape:label="Layer 1"
     inkscape:groupmode="layer"
     id="layer1"><rect
       style="fill:#000000;fill-opacity:1;fill-rule:nonzero;stroke:#000000;stroke-width:20.7183;stroke-linecap:butt;stroke-linejoin:round;stroke-dasharray:none;stroke-opacity:1;paint-order:stroke fill markers"
       id="rect1"
       width="114.74822"
       height="114.74833"
       x="10.35915"
       y="10.359152" /><path
       style="fill:#ffffff;stroke:none;stroke-width:10.8356"
       d="M 95.984621,20.325634 C 83.54769,43.928412 67.937563,64.643059 60.644913,91.650319 58.8396,98.336031 57.997115,105.44003 59.599109,112.31447 c 0.786294,3.37411 2.538549,6.68781 5.927961,5.55385 3.306668,-1.10625 5.345793,-5.14024 7.247075,-8.22019 4.750868,-7.69609 8.753091,-15.882374 12.951334,-23.997083 C 97.759493,62.390712 111.95724,36.94824 131.51843,21.658804 115.57946,40.653184 99.024443,64.559355 91.85059,90.317148 c -2.295318,8.241359 -3.681757,31.944582 9.21028,27.571242 7.92113,-2.68707 13.78002,-13.70917 18.61295,-20.905384 v -0.666584 l -1.69207,-1.333172 c -4.14948,7.41368 -11.70482,19.68508 -19.741014,20.66415 0.148598,-8.464 3.677714,-16.926728 6.317474,-24.663667 5.85369,-17.156722 12.92479,-33.735329 20.36595,-49.993938 3.27282,-7.150949 9.24112,-15.354535 10.54247,-23.330506 -6.9761,-1.409568 -17.57224,13.116696 -21.94664,18.664405 C 104.06662,48.312659 95.6575,61.745518 88.328017,75.65226 81.950421,87.752925 76.274745,101.39965 67.783185,111.6479 72.760873,90.76324 79.458517,70.830197 86.881387,50.988582 c 4.14026,-11.06707 9.672889,-22.360345 12.487411,-33.995877 -3.551504,-0.532305 -6.03055,2.614062 -8.460437,5.358918 -4.84188,5.4695 -9.448917,11.256071 -13.767789,17.305001 -9.781063,13.699174 -18.868186,27.980423 -27.564289,42.661493 -6.623266,11.181628 -13.624099,23.980093 -24.09525,30.580653 -4.888156,3.08127 -22.7421089,5.2796 -20.7942082,-7.17763 0.3425298,-2.19055 2.3643979,-2.5126 3.8737806,-2.92659 2.8201076,-0.77348 5.7226876,-2.08534 7.2814546,-5.171708 C 18.003949,93.342324 16.458611,86.987516 11.943909,86.390154 -3.3327897,84.368804 -3.3927516,111.37057 8.5601701,116.90135 20.784795,122.5579 32.30092,112.49067 40.049597,102.31568 47.048989,93.124628 52.419952,82.252432 58.609013,72.31933 70.073953,53.918744 82.186289,36.296332 95.984621,20.325634 Z"
       id="path1" /></g></svg>
